<?xml version="1.0" encoding="iso-8859-1"?>
<!-- Uploaded to: SVG Repo, www.svgrepo.com, Generator: SVG Repo Mixer Tools -->
<svg height="800px" width="800px" version="1.1" id="Layer_1" xmlns="http://www.w3.org/2000/svg" xmlns:xlink="http://www.w3.org/1999/xlink" 
	 viewBox="0 0 512 512" xml:space="preserve">
<path style="fill:#FA6E51;" d="M512,256.006C512,397.402,397.394,512.004,256.004,512C114.606,512.004,0,397.402,0,256.006
	C-0.007,114.61,114.606,0,256.004,0C397.394,0,512,114.614,512,256.006z"/>
<path style="fill:#E8573F;" d="M512,256.005c0-11.647-0.85-23.089-2.356-34.323c-0.129-0.112-0.224-0.257-0.364-0.364
	c-0.442-0.582-154.111-154.251-154.692-154.692c-1.465-1.929-3.675-3.255-6.286-3.255H163.698c-4.436,0-8.026,3.594-8.026,8.026
	c0,2.609,1.326,4.82,3.255,6.286c0.442,0.582,28.838,28.85,28.85,28.865V376.87c0,21.077,7.827,39.439,20.697,52.333
	c0.49,0.524,79.874,79.872,80.38,80.379c0.071,0.076,0.148,0.146,0.221,0.221C414.829,493.578,512,386.187,512,256.005z"/>
<path style="fill:#F4F6F9;" d="M348.301,63.372H163.699c-4.436,0-8.027,3.594-8.027,8.027s3.589,8.027,8.027,8.027h24.079v297.447
	c0,40.907,29.33,71.758,68.223,71.758s68.223-30.851,68.223-71.758V79.424h24.079c4.436,0,8.027-3.594,8.027-8.027
	C356.33,66.964,352.738,63.372,348.301,63.372z M308.171,376.871c0,31.76-22.425,55.706-52.171,55.706s-52.171-23.946-52.171-55.706
	v-80.74h16.052c4.436,0,8.027-3.589,8.027-8.027c0-4.437-3.589-8.027-8.027-8.027h-16.052v-32.105h40.131
	c4.436,0,8.027-3.594,8.027-8.027s-3.589-8.027-8.027-8.027h-40.131v-40.131h16.052c4.436,0,8.027-3.594,8.027-8.027
	s-3.589-8.027-8.027-8.027h-16.052v-32.105h40.131c4.436,0,8.027-3.594,8.027-8.027c0-4.432-3.589-8.027-8.027-8.027h-40.131v-48.15
	h104.34v297.447H308.171z"/>
</svg>