<?xml version="1.0" encoding="UTF-8" standalone="no"?>
<!-- Created with Inkscape (http://www.inkscape.org/) -->

<svg
   version="1.1"
   id="svg2"
   width="530.49994"
   height="402.41055"
   viewBox="0 0 530.49994 402.41056"
   xmlns="http://www.w3.org/2000/svg"
   xmlns:svg="http://www.w3.org/2000/svg">
  <defs
     id="defs6" />
  <g
     id="g8"
     transform="translate(-62.858717,-41.901482)">
    <path
       style="fill:#b6b6b6;fill-opacity:1;stroke-width:1"
       d="m 116.2758,442.20406 c -23.734851,-6.38309 -43.551521,-25.91737 -51.004931,-50.27809 -3.67994,-12.02752 -3.07004,-33.60393 1.2879,-45.56233 8.62398,-23.66453 29.30728,-41.47956 54.233931,-46.71297 13.72097,-2.88076 122.00906,-2.89944 133.05262,-0.0229 9.35204,2.4359 16.0402,6.54724 22.77171,13.99822 8.50156,9.4102 10.8412,16.03628 10.83494,30.68554 -0.005,11.22679 -0.42121,13.45679 -3.66318,19.61744 -5.28664,10.04604 -10.45203,15.35539 -19.94912,20.50509 l -8.3803,4.54411 -64.30573,0.38184 c -71.17516,0.42264 -69.78539,0.57281 -75.08158,-8.11324 -5.56086,-9.12009 -1.75143,-21.6601 8.08055,-26.59986 4.20758,-2.11396 10.12034,-2.33146 63.43344,-2.33334 55.26323,-0.001 58.92586,-0.14846 61,-2.44038 3.01007,-3.3261 2.77386,-8.99448 -0.51174,-12.28008 -2.66651,-2.66651 -3.8564,-2.71104 -62.33334,-2.33334 l -59.61494,0.38503 -6.82631,3.60112 c -15.85264,8.3628 -23.046271,25.96446 -17.76896,43.47778 2.3347,7.74798 11.01786,17.28502 19.21114,21.10031 l 6.71747,3.12807 80.33333,0.0133 80.33334,0.0133 v 18.66667 18.66667 l -82.33334,-0.0877 c -67.49327,-0.0719 -83.62812,-0.43596 -89.5169,-2.01965 z m 245.33335,0.024 c -24.17708,-6.58285 -44.20563,-26.68561 -51.46446,-51.65514 -4.14989,-14.27511 -2.19222,-38.17719 4.14942,-50.66219 9.43458,-18.57418 23.42525,-30.7777 44.38237,-38.71305 7.24843,-2.74459 9.70858,-2.83239 91.11623,-3.25175 l 83.66667,-0.43101 v 18.69201 18.69202 l -81,0.37292 -81,0.37292 -6.66667,3.54233 c -8.45887,4.49463 -13.08037,9.38093 -16.82689,17.791 -6.00186,13.47281 -3.0346,29.24364 7.44657,39.57822 10.19853,10.05591 7.64044,9.71154 75.23168,10.12795 55.19146,0.34001 60.73648,0.17513 63,-1.87332 3.6493,-3.30256 3.16727,-9.10025 -1.03117,-12.40275 -3.43333,-2.70066 -4.84932,-2.76354 -62.33333,-2.76842 -55.98693,-0.005 -59.02581,-0.1304 -63.08879,-2.60771 -13.18979,-8.04228 -10.12731,-29.07208 4.87989,-33.50984 3.08432,-0.91205 25.76269,-1.24856 65.38871,-0.97024 l 60.66667,0.42611 7.56686,3.54721 c 10.10053,4.73495 18.43157,12.66437 23.18307,22.06548 3.45286,6.83165 3.90223,9.10237 3.90271,19.72064 4.4e-4,9.64667 -0.59145,13.28657 -3.0182,18.56045 -4.60088,9.99878 -11.20809,17.14414 -20.52267,22.1942 l -8.44511,4.5787 -66,0.2696 c -54.47749,0.22253 -67.25413,-0.0719 -73.18356,-1.68632 z M 554.79272,370.97813 V 297.6448 h 18.66666 18.66667 v 73.33333 73.33333 H 573.45938 554.79272 Z M 75.393259,267.76933 c -8.8321,-3.84701 -13.84107,-13.96362 -12.13107,-24.5011 1.07671,-6.635 4.54351,-11.02779 11.60856,-14.7092 14.57953,-7.597 31.160041,2.55869 31.160041,19.08577 0,15.93027 -16.055141,26.47623 -30.637531,20.12453 z M 560.11249,258.6448 c -7.09113,-4.82619 -9.7546,-9.45307 -10.3514,-17.98208 -0.44961,-6.42565 -0.0217,-8.44391 2.61203,-12.31952 1.73234,-2.54923 5.17417,-5.99923 7.6485,-7.66667 8.76472,-5.90654 23.3921,-2.98589 30.03908,5.99794 4.07711,5.51045 4.43739,17.4258 0.72655,24.02834 -5.88349,10.46826 -21.15381,14.4219 -30.67476,7.94199 z m -412.30303,-5.75385 c -6.97301,-3.78352 -9.55123,-13.09998 -5.69104,-20.56476 2.86942,-5.54883 7.10634,-8.01472 13.77096,-8.01472 4.85999,0 6.59523,0.75857 10.36999,4.53333 3.77476,3.77476 4.53333,5.51 4.53333,10.36999 0,6.66462 -2.46589,10.90154 -8.01472,13.77096 -4.83269,2.49908 -10.25125,2.46476 -14.96852,-0.0948 z m 343.12427,-5.7811 c -3.5568,-3.32253 -4.14102,-4.80204 -4.14102,-10.48685 0,-8.15969 3.35854,-12.94616 10.60796,-15.11813 11.09767,-3.32495 22.19026,7.76764 18.86531,18.8653 -2.14357,7.15462 -6.97639,10.60796 -14.8454,10.60796 -5.16248,0 -7.11807,-0.72136 -10.48685,-3.86828 z m -284.25999,-6.6266 c -6.90354,-5.59016 -2.28486,-17.50512 6.78563,-17.50512 5.81309,0 9.86667,4.10836 9.86667,10 0,5.89164 -4.05358,10 -9.86667,10 -2.03752,0 -5.09104,-1.12269 -6.78563,-2.49488 z m 229.54908,-3.68493 c -3.29665,-4.19101 -3.41744,-6.02124 -0.73919,-11.20041 3.6352,-7.02972 13.68943,-6.95275 17.35354,0.1328 3.76069,7.27238 -0.66067,14.5807 -8.821,14.5807 -3.8458,0 -5.68046,-0.82704 -7.79335,-3.51314 z M 251.79271,233.538 c -2.68032,-1.56115 -3.13158,-7.89496 -0.73334,-10.2932 0.88,-0.88 2.86,-1.6 4.4,-1.6 1.54,0 3.52,0.72 4.4,1.6 2.5353,2.53529 1.94395,8.78877 -0.97901,10.35309 -3.15109,1.68642 -4.10325,1.67836 -7.08765,-0.0599 z m 148.00091,-0.90155 c -2.84464,-0.6344 -4.5563,-6.6116 -2.72943,-9.53136 1.78183,-2.84777 7.55411,-3.41364 9.60565,-0.94166 4.07302,4.90768 -0.51277,11.89218 -6.87622,10.47302 z M 260.12604,212.31147 c -3.21029,-3.2103 -3.38044,-5.76243 -0.57143,-8.57143 4.05108,-4.05108 11.2381,-1.11499 11.2381,4.59105 0,2.30199 -4.55182,6.64704 -6.96335,6.64704 -0.57016,0 -2.23665,-1.2 -3.70332,-2.66666 z m 128.68952,-0.8343 c -3.27304,-3.27304 -2.06966,-8.86721 2.23082,-10.37053 4.6101,-1.61156 7.74633,0.81271 7.74633,5.98784 0,5.80292 -5.94531,8.41453 -9.97715,4.38269 z m -169.28059,-3.46238 c -3.29428,-4.70326 -2.65463,-11.05431 1.43755,-14.27322 4.66034,-3.66582 9.21453,-3.4903 13.21412,0.5093 4.04036,4.04034 4.31251,10.35416 0.60606,14.0606 -3.82469,3.82469 -12.48901,3.65622 -15.25773,-0.29668 z m 203.25774,-1.03666 c -1.6508,-1.6508 -2.66666,-4.44444 -2.66666,-7.33333 0,-9.5542 11.43782,-13.85875 17.23656,-6.48685 3.66582,4.66034 3.4903,9.21453 -0.5093,13.21412 -4.04034,4.04036 -10.35416,4.3125 -14.0606,0.60606 z m -257.4359,-3.89744 c -3.2562,-3.25618 -3.89744,-4.98158 -3.89744,-10.48685 0,-7.99663 3.37484,-12.9496 10.08624,-14.80271 12.31913,-3.40146 23.14531,7.37531 19.25397,19.16615 -2.24621,6.80611 -7.04416,10.02085 -14.95592,10.02085 -5.50526,0 -7.23066,-0.64124 -10.48685,-3.89744 z m 305.04557,-1.45674 c -10.26415,-8.07378 -5.64925,-25.40064 7.32609,-27.50624 5.35634,-0.86922 11.78066,1.91038 14.98331,6.48281 2.8102,4.01213 2.64845,14.27045 -0.28205,17.88823 -5.1577,6.36728 -15.96322,7.90525 -22.02735,3.1352 z m -367.04474,-1.33828 c -10.639001,-5.26632 -14.806241,-20.86752 -8.220851,-30.77703 3.31615,-4.99005 12.956271,-10.53051 18.322581,-10.53051 5.3663,0 15.00642,5.54046 18.32257,10.53051 3.82547,5.75645 4.07156,16.18423 0.53863,22.82363 -5.13632,9.65264 -18.25335,13.25465 -28.96293,7.9534 z m 429.00792,-3.54988 c -10.98446,-5.41292 -15.38118,-19.81219 -9.28984,-30.42432 3.44492,-6.00166 12.40701,-11.33334 19.05033,-11.33334 2.25589,0 6.77876,1.35 10.05081,3 6.63972,3.34822 11.94919,11.79063 11.94919,19 0,15.33138 -18.00869,26.53428 -31.76049,19.75766 z M 273.72604,196.0448 c -2.18687,-2.18687 -2.01381,-7.06337 0.31937,-8.99975 1.05566,-0.87612 3.60566,-1.39958 5.66667,-1.16326 6.83399,0.78361 5.45012,11.76301 -1.48263,11.76301 -1.59688,0 -3.62341,-0.72 -4.50341,-1.6 z m 99.66722,-1.813 c -2.98551,-3.59731 -0.0565,-9.17243 5.08061,-9.67076 3.47633,-0.33723 4.58311,0.20495 5.77977,2.83133 2.1304,4.67575 -0.41233,8.9191 -5.34458,8.9191 -2.0844,0 -4.56651,-0.93586 -5.5158,-2.07967 z M 242.94444,183.31147 c -7.40034,-6.1442 -3.22287,-17.66667 6.40505,-17.66667 6.22564,0 9.45059,3.23025 9.4228,9.43832 -0.0237,5.30923 -0.90084,6.928 -4.89193,9.02875 -4.11488,2.16589 -7.67723,1.90517 -10.93592,-0.8004 z m 49.30447,0.48137 c -0.9069,-1.09273 -1.45554,-3.67307 -1.21922,-5.73408 0.37472,-3.268 1.06346,-3.79988 5.38475,-4.15844 4.42371,-0.36705 5.05244,-0.0232 5.86301,3.20637 0.49936,1.98963 0.30907,4.57464 -0.42289,5.74448 -1.78183,2.84778 -7.55411,3.41364 -9.60565,0.94167 z m 63.87713,-0.81471 c -3.21029,-3.21029 -3.38044,-5.76242 -0.57142,-8.57142 2.67604,-2.67604 6.46681,-2.67604 9.14285,0 2.95791,2.9579 2.60021,6.73318 -0.86811,9.16249 -3.81353,2.67111 -4.4933,2.61895 -7.70332,-0.59107 z m 48,0.38742 c -4.42066,-1.62544 -6.66666,-4.90038 -6.66666,-9.72075 0,-8.04937 7.35869,-12.44576 14.5807,-8.71112 7.08561,3.66411 7.16258,13.71833 0.1328,17.35353 -4.1495,2.1458 -4.8782,2.24344 -8.04689,1.07834 z m -92.09027,-7.22274 c -2.40116,-4.48662 0.36728,-9.16468 5.4236,-9.16468 2.9761,0 4.44139,0.84327 5.4991,3.16468 2.11481,4.64151 -0.4954,8.83532 -5.4991,8.83532 -2.61902,0 -4.4062,-0.93429 -5.4236,-2.83532 z m 22.87981,0.98336 c -0.9069,-1.09273 -1.45554,-3.67306 -1.21922,-5.73408 0.37472,-3.268 1.06346,-3.79988 5.38475,-4.15844 4.42371,-0.36705 5.05244,-0.0232 5.86301,3.20638 0.49936,1.98962 0.30907,4.57464 -0.42289,5.74448 -1.78183,2.84777 -7.55411,3.41364 -9.60565,0.94166 z M 199.32604,163.77813 c -3.92308,-3.92308 -4.52935,-5.40384 -4.50368,-11 0.0565,-12.32248 11.32638,-18.98229 22.41704,-13.24708 9.5518,4.93942 9.72749,20.95208 0.29106,26.52632 -6.39661,3.77858 -12.96956,2.95563 -18.20442,-2.27924 z m 74.55383,1.88607 c -6.6445,-2.74263 -7.86932,-12.82848 -2.1082,-17.36017 6.63085,-5.21583 16.35437,-0.45499 16.35437,8.00744 0,7.10622 -7.60033,12.09592 -14.24617,9.35273 z m 97.51891,-3.29213 c -6.65995,-6.65994 -2.61114,-16.72727 6.72726,-16.72727 5.85168,0 10,3.89691 10,9.39393 0,5.05763 -5.23138,10.60607 -10,10.60607 -1.9,0 -4.92726,-1.47273 -6.72726,-3.27273 z m 63.92727,-1.2606 c -5.14658,-5.14658 -6.01139,-11.40752 -2.51076,-18.17698 5.32569,-10.29876 21.29582,-10.29876 26.62152,0 3.50062,6.76946 2.63581,13.0304 -2.51076,18.17698 -3.86951,3.8695 -5.45099,4.53333 -10.8,4.53333 -5.34902,0 -6.9305,-0.66383 -10.8,-4.53333 z m -131.31897,-7.29488 c -6.90355,-5.59016 -2.28487,-17.50512 6.78563,-17.50512 5.81309,0 9.86666,4.10836 9.86666,10 0,5.89164 -4.05357,10 -9.86666,10 -2.03752,0 -5.09104,-1.1227 -6.78563,-2.49488 z m 34.05836,-0.77786 c -6.73193,-6.73192 -2.40614,-16.72726 7.23923,-16.72726 6.33505,0 9.48804,3.21508 9.48804,9.67488 0,9.08944 -10.33351,13.44616 -16.72727,7.05238 z M 149.43857,144.506 c -6.05472,-3.22181 -10.59571,-11.19752 -10.62394,-18.65969 -0.0488,-12.90932 8.48329,-21.53853 21.28758,-21.52986 13.41052,0.009 21.34719,7.93876 21.34719,21.32835 0,8.6306 -3.13826,14.70696 -9.64451,18.67387 -5.63376,3.43494 -16.09839,3.5226 -22.36632,0.18733 z m 334.63666,-3.19453 c -6.63972,-3.34822 -11.94918,-11.79063 -11.94918,-19 0,-7.20938 5.30946,-15.65179 11.94918,-19 3.27206,-1.65 7.79492,-3 10.05082,-3 2.25589,0 6.77876,1.35 10.05081,3 6.63972,3.34821 11.94919,11.79062 11.94919,19 0,6.692 -5.32956,15.61397 -11.33334,18.97257 -6.80066,3.80441 -13.21066,3.81289 -20.71748,0.0275 z m -238.11146,-2.9159 c -5.5871,-2.43164 -8.5044,-6.93742 -8.5044,-13.1351 0,-9.95647 5.30936,-15.5402 14.82019,-15.58602 17.87921,-0.0861 21.61261,22.82946 4.75968,29.21487 -4.73144,1.79269 -5.94643,1.73853 -11.07547,-0.49375 z m 147.10527,-3.43829 c -4.83936,-3.80664 -6.89818,-10.72153 -4.94988,-16.62496 2.24622,-6.80611 7.04416,-10.02085 14.95592,-10.02085 5.50527,0 7.23067,0.64124 10.48686,3.89743 3.2994,3.2994 3.89744,4.95187 3.89744,10.76923 0,5.81737 -0.59804,7.46984 -3.89744,10.76923 -3.25619,3.2562 -4.98159,3.89744 -10.48686,3.89744 -4.58753,0 -7.6274,-0.81648 -10.00604,-2.68752 z m -98.943,-12.19339 c -4.98172,-2.73961 -7.273,-6.90344 -7.30368,-13.27261 -0.036,-7.47203 3.31607,-12.317037 10.062,-14.543397 16.00984,-5.28372 27.55249,16.250617 14.29868,26.676067 -3.79441,2.98468 -12.62889,3.5751 -17.057,1.13994 z m 50.47079,-0.94282 c -8.87508,-5.57682 -8.91209,-20.17386 -0.0648,-25.568377 6.81235,-4.15376 13.67472,-3.46054 19.06071,1.92544 3.83703,3.837027 4.53333,5.472167 4.53333,10.645637 0,4.80151 -0.7956,7.00272 -3.70992,10.26442 -4.87418,5.45515 -13.57718,6.65521 -19.81929,2.73288 z M 209.97745,104.43844 c -7.16072,-4.36649 -10.47364,-10.387447 -10.47364,-19.035037 0,-8.54723 2.43887,-12.98535 9.942,-18.09193 3.15329,-2.14611 6.35012,-3 11.23153,-3 9.11608,0 15.24886,3.45413 19.18789,10.80711 7.89932,14.74565 -2.27855,31.866777 -18.93637,31.854567 -4.32602,-0.003 -8.31326,-0.92602 -10.95141,-2.53471 z m 216.70002,-0.01 c -6.20041,-1.98394 -10.37313,-5.573807 -13.15261,-11.315457 -3.36416,-6.94943 -3.41364,-11.83903 -0.19158,-18.93383 6.65802,-14.66053 26.98649,-16.84331 36.81813,-3.95336 7.37134,9.66432 4.61321,25.93573 -5.3655,31.653457 -4.92457,2.82175 -13.4887,4.02735 -18.10844,2.54919 z M 278.65655,82.634043 c -4.99006,-3.31616 -10.53051,-12.95628 -10.53051,-18.32257 0,-5.3663 5.54045,-15.00642 10.53051,-18.32258 5.51069,-3.66214 15.5654,-4.03942 22.31346,-0.83726 9.94011,4.71689 14.0913,19.57414 8.33218,29.82112 -5.74811,10.22739 -21.03392,14.04878 -30.64564,7.66129 z m 78.13616,2.05359 c -4.15999,-1.01062 -11.13183,-6.7856 -13.33473,-11.04554 -1.09923,-2.12568 -1.9986,-6.80593 -1.9986,-10.40057 0,-16.1288 16.43778,-26.14086 31.1918,-18.99857 8.84577,4.28217 11.91921,9.96896 11.23078,20.78038 -0.46216,7.25823 -1.15086,9.2183 -4.4843,12.76255 -6.29811,6.69642 -13.89834,9.01692 -22.60495,6.90175 z"
       id="path420" />
  </g>
</svg>
