<?xml version="1.0" encoding="UTF-8" standalone="no"?>
<svg
   height="296.88669"
   width="335.5"
   xml:space="preserve"
   viewBox="0 0 335.5 296.88668"
   y="0px"
   x="0px"
   id="Layer_1"
   version="1.1"
   sodipodi:docname="helmholtz.svg"
   inkscape:version="1.2.2 (b0a8486541, 2022-12-01)"
   xmlns:inkscape="http://www.inkscape.org/namespaces/inkscape"
   xmlns:sodipodi="http://sodipodi.sourceforge.net/DTD/sodipodi-0.dtd"
   xmlns="http://www.w3.org/2000/svg"
   xmlns:svg="http://www.w3.org/2000/svg"
   xmlns:rdf="http://www.w3.org/1999/02/22-rdf-syntax-ns#"
   xmlns:cc="http://creativecommons.org/ns#"
   xmlns:dc="http://purl.org/dc/elements/1.1/"><sodipodi:namedview
     id="namedview16"
     pagecolor="#ffffff"
     bordercolor="#666666"
     borderopacity="1.0"
     inkscape:showpageshadow="2"
     inkscape:pageopacity="0.0"
     inkscape:pagecheckerboard="0"
     inkscape:deskcolor="#d1d1d1"
     showgrid="false"
     inkscape:zoom="1.6936886"
     inkscape:cx="171.22392"
     inkscape:cy="171.51914"
     inkscape:window-width="1920"
     inkscape:window-height="1058"
     inkscape:window-x="0"
     inkscape:window-y="0"
     inkscape:window-maximized="1"
     inkscape:current-layer="g5" /><metadata
     id="metadata115"><rdf:RDF><cc:Work
         rdf:about=""><dc:format>image/svg+xml</dc:format><dc:type
           rdf:resource="http://purl.org/dc/dcmitype/StillImage" /></cc:Work></rdf:RDF></metadata><defs
     id="defs113" /><style
     id="style3"
     type="text/css">
	.st0{fill:#005AA0;}
	.st1{fill:#8CB423;}
</style><g
     transform="translate(19.150001,-85)"
     id="g5"><g
       id="g2615"><path
         style="fill:#b6b6b6;fill-opacity:1"
         id="path7"
         d="M 48.9,119.5 V 85 h 16.3 v 85 H 48.9 V 135.7 H 19.8 V 170 H 3.5 V 85 h 16.3 v 34.4 h 29.1 z"
         class="st0" /><path
         style="fill:#b6b6b6;fill-opacity:1"
         id="path9"
         d="m 137.1,85 v 16.3 H 99.8 v 18.1 h 32.4 v 16.3 H 99.8 v 18 h 37.3 V 170 H 91.6 c -0.7,0 -1.4,-0.2 -1.9,-0.8 l -5.3,-5.3 c -0.6,-0.5 -0.8,-1.2 -0.8,-1.9 V 93 c 0,-0.7 0.2,-1.4 0.8,-1.9 l 5.3,-5.3 C 90.2,85.3 90.9,85 91.6,85 Z"
         class="st0" /><path
         style="fill:#b6b6b6;fill-opacity:1"
         id="path11"
         d="m 162.4,170.1 c -0.7,0 -1.4,-0.2 -1.9,-0.8 l -5.3,-5.3 c -0.6,-0.5 -0.8,-1.2 -0.8,-1.9 V 85 h 16.3 v 68.7 h 35.5 V 170 Z"
         class="st0" /><path
         style="fill:#b6b6b6;fill-opacity:1"
         id="path13"
         d="m 293.7,85 v 85 h -16.3 v -47 l -13.3,27.8 c -0.5,1 -1.4,1.6 -2.4,1.6 h -9.6 c -1.1,0 -2,-0.6 -2.5,-1.6 L 236.3,123 v 47 H 220 V 85 h 16.3 l 20.6,43.2 20.5,-43.2 z"
         class="st0" /></g><g
       id="g2609"
       transform="translate(-5.244319)"><path
         style="fill:#b6b6b6;fill-opacity:1"
         id="path15"
         d="m 31.494318,222.54902 v -34.5 h 16.3 v 85 h -16.3 v -34.3 H 2.3943179 v 34.3 H -13.905682 v -85 H 2.3943179 v 34.4 H 31.494318 Z"
         class="st0" /><path
         style="fill:#b6b6b6;fill-opacity:1"
         id="path17"
         d="m 113.39432,192.14902 8.5,8.4 c 2.5,2.5 4,6 4,9.6 v 40.9 c 0,3.6 -1.4,7.1 -4,9.6 l -8.5,8.5 c -2.5,2.5 -6,4 -9.6,4 H 84.694318 c -3.6,0 -7.2,-1.3 -9.7,-4 l -8.4,-8.5 c -2.5,-2.5 -4,-6 -4,-9.6 v -40.9 c 0,-3.6 1.4,-7.1 4,-9.6 l 8.4,-8.4 c 2.6,-2.6 6.1,-4.1 9.7,-4.1 h 19.100002 c 3.6,0 6.9,1.6 9.6,4.1 z m -3.9,56.7 v -36.5 c 0,-0.7 -0.4,-1.4 -0.8,-1.9 l -5.2,-5.3 c -0.6,-0.5 -1.3,-0.8 -2,-0.8 H 86.894318 c -0.7,0 -1.3,0.4 -1.9,0.8 l -5.2,5.3 c -0.6,0.5 -0.8,1.2 -0.8,1.9 v 36.5 c 0,0.7 0.2,1.3 0.8,1.9 l 5.2,5.2 c 0.6,0.6 1.2,0.8 1.9,0.8 h 14.600002 c 0.7,0 1.4,-0.2 2,-0.8 l 5.2,-5.2 c 0.5,-0.5 0.8,-1.1 0.8,-1.9 z"
         class="st0" /><path
         style="fill:#b6b6b6;fill-opacity:1"
         id="path19"
         d="m 148.29432,273.14902 c -0.7,0 -1.4,-0.2 -1.9,-0.8 l -5.3,-5.3 c -0.6,-0.5 -0.8,-1.2 -0.8,-1.9 v -77.1 h 16.3 v 68.7 h 35.5 v 16.3 z"
         class="st0" /><path
         style="fill:#b6b6b6;fill-opacity:1"
         id="path21"
         d="m 190.89432,204.34902 v -16.3 h 61.4 v 16.3 h -22.6 v 68.7 h -16.3 v -68.7 z"
         class="st0" /><path
         style="fill:#b6b6b6;fill-opacity:1"
         id="path23"
         d="m 315.49432,188.94902 5.3,5.3 c 0.5,0.5 0.8,1.2 0.8,1.9 v 4.2 l -35.7,56.5 h 35.2 v 16.3 h -48.7 c -0.7,0 -1.4,-0.2 -1.9,-0.8 l -5.3,-5.3 c -0.5,-0.5 -0.8,-1.2 -0.8,-1.9 v -4.9 l 35.3,-55.8 h -35.7 v -16.4 h 49.7 c 0.6,0 1.3,0.4 1.8,0.9 z"
         class="st0" /></g><path
       style="fill:#b6b6b6;fill-opacity:1;stroke-width:0.999997"
       d="m 140.5429,364.42363 c 3.34705,-9.5122 10.66422,-30.50742 16.26037,-46.65603 l 10.17477,-29.36113 h 10.1622 c 5.58922,0 10.1622,0.21454 10.1622,0.47676 0,0.26221 7.23929,21.07643 16.08732,46.25383 8.84804,25.17737 16.08777,45.99417 16.08829,46.25955 5.3e-4,0.26537 -4.14238,0.26537 -9.20648,0 l -9.20745,-0.48249 -2.96993,-8.0179 c -1.63346,-4.40985 -3.82488,-8.56161 -4.86981,-9.22614 -2.44987,-1.558 -30.31051,-1.58043 -32.5999,-0.0262 -0.95763,0.65009 -3.09156,4.98284 -4.74211,9.62834 l -3.00096,8.44635 h -9.21204 -9.21203 l 6.08556,-17.29491 z m 46.75954,-20.06306 c 0,-4.11737 -8.91626,-28.49675 -10.27194,-28.08618 -1.45848,0.44171 -10.52107,24.41531 -10.59938,28.03888 -0.0304,1.40702 3.0974,2.01103 10.41393,2.01103 7.159,0 10.45739,-0.61938 10.45739,-1.96373 z m 46.65603,-9.21399 v -46.74011 h 8.87324 8.87322 l -0.42687,46.25383 -0.42689,46.25382 -8.44635,0.48628 -8.44635,0.48629 z m -187.788672,29.3122 c 0,0.57173 10.664238,-30.5074 16.260371,-46.65603 l 10.17478,-29.36112 h 10.162198 c 5.589215,0 10.162198,0.21454 10.162198,0.47675 0,0.26221 7.239295,21.07643 16.087325,46.25383 8.84804,25.17738 16.08776,45.99418 16.08828,46.25955 5.3e-4,0.26538 -4.14237,0.26538 -9.20647,0 l -9.20746,-0.48249 -2.96993,-8.0179 c -1.63346,-4.40985 -3.824873,-8.56161 -4.869808,-9.22614 -2.449859,-1.558 -30.310509,-1.58043 -32.599904,-0.0262 -0.957623,0.65009 -3.091573,4.98285 -4.742102,9.62834 l -3.000964,8.44635 h -9.212045 -9.212024 l 6.085555,-17.29491 z m 46.759547,-20.06306 c 0,-4.11736 -8.916257,-28.49675 -10.271937,-28.08617 -1.458483,0.4417 -10.521079,24.4153 -10.59938,28.03887 -0.03041,1.40702 3.097396,2.01103 10.413931,2.01103 7.158998,0 10.457386,-0.61937 10.457386,-1.96373 z"
       id="path3058"
       sodipodi:nodetypes="sscssssscssssccccssssssccccccccccscssssscsssscccccsssss" /></g></svg>
