<?xml version="1.0" encoding="UTF-8" standalone="no"?>
<!-- Created with Inkscape (http://www.inkscape.org/) -->

<svg
   version="1.1"
   id="svg4327"
   width="368.61523"
   height="214.27786"
   viewBox="0 0 368.61523 214.27786"
   xmlns="http://www.w3.org/2000/svg"
   xmlns:svg="http://www.w3.org/2000/svg">
  <defs
     id="defs4331" />
  <g
     id="g4333"
     transform="translate(-52.522289,-38.001622)">
    <path
       style="fill:#b6b6b6;fill-opacity:1"
       d="m 191.34264,251.33495 c -1.47803,-1.47802 -0.73063,-14.33333 0.83333,-14.33333 1,0 1.5,1 1.5,3 0,2.66667 0.33333,3 3,3 2.66667,0 3,-0.33333 3,-3 0,-2.03784 0.49513,-3 1.54381,-3 1.2768,0 1.49299,1.25391 1.25,7.25 -0.28284,6.97923 -1.93431,9.68784 -2.61023,4.28109 -0.51517,-4.12091 -6.18358,-3.69106 -6.18358,0.46891 0,2.86715 -0.89976,3.76691 -2.33333,2.33333 z m 41.33333,-6.75 c 0,-7.58333 0,-7.58333 4.48095,-7.58333 6.75312,0 8.20287,7.56028 1.81104,9.44439 -2.00809,0.59193 -3.31359,1.68237 -3.49791,2.92168 -0.85223,5.73008 -2.79408,2.40613 -2.79408,-4.78274 z m 7,-3.08333 c 0,-1.83333 -0.53333,-2.5 -2,-2.5 -1.46667,0 -2,0.66667 -2,2.5 0,1.83333 0.53333,2.5 2,2.5 1.46667,0 2,-0.66667 2,-2.5 z m 34.6683,9.24672 c -5.10344,-3.73173 -2.6942,-13.74672 3.30695,-13.74672 4.80134,0 5.41749,1.739 0.77475,2.18664 -3.13876,0.30263 -3.25,0.46738 -3.25,4.81336 0,4.34598 0.11124,4.51073 3.25,4.81336 3.4654,0.33413 4.27151,1.58067 1.66821,2.57965 -2.36908,0.9091 -3.85051,0.74259 -5.74991,-0.64629 z m -86.84305,-33.49651 c 24.37889,-0.14911 63.97889,-0.14906 88,1.2e-4 24.02111,0.14918 4.07475,0.27119 -44.32525,0.27113 -48.4,-7e-5 -68.05364,-0.12213 -43.67475,-0.27125 z m 90.67475,-18.93137 c -21.57444,-4.8452 -29.82075,-29.35563 -15.40162,-45.7781 9.21246,-10.49242 26.82102,-11.72969 39.22139,-2.7559 4.81977,3.48793 4.81977,3.48793 1.06192,7.33632 -3.31385,3.39369 -3.94453,3.67946 -5.33775,2.4186 -12.13668,-10.98354 -31.04394,-4.0037 -31.04394,11.46024 0,14.3835 17.1669,22.92297 27.64162,13.75 3.71121,-3.25 3.71121,-3.25 -3.71521,-3.75 -7.42641,-0.5 -7.42641,-0.5 -7.42641,-5.5 0,-5 0,-5 13.25,-5.27903 13.25,-0.27902 13.25,-0.27902 13.22804,4.5 -0.0696,15.13371 -15.99773,27.07444 -31.47804,23.59787 z M 68.925546,196.25162 c -0.378209,-0.9625 -4.588291,-12.775 -9.355737,-26.25 -8.668085,-24.5 -8.668085,-24.5 -3.638174,-24.80721 6.279619,-0.38354 5.353126,-1.7481 12.269011,18.07003 3.217325,9.21955 6.142422,16.41955 6.500216,16 0.357794,-0.41955 3.311058,-8.29751 6.562818,-17.50657 5.91229,-16.74376 5.91229,-16.74376 11.16229,-16.75 2.8875,-0.003 5.25,0.34463 5.25,0.77348 0,1.0118 -17.57381,49.72166 -18.45082,51.14068 -1.16081,1.87824 -9.511719,1.33467 -10.299604,-0.67041 z m 94.417094,1.08333 c -0.36667,-0.36666 -0.66667,-12.29166 -0.66667,-26.5 0,-25.83333 0,-25.83333 14.5,-25.83333 14.5,0 14.5,0 14.5,5 0,5 0,5 -9,5 -9,0 -9,0 -9,4.5 0,4.5 0,4.5 9,4.5 9,0 9,0 9,5 0,5 0,5 -9,5 -9,0 -9,0 -9,6.5 0,6.5 0,6.5 9,6.5 9,0 9,0 9,5.5 0,5.5 0,5.5 -13.83333,5.5 -7.60834,0 -14.13334,-0.3 -14.5,-0.66667 z m 209.0348,-0.0322 c -0.26384,-0.4406 3.93024,-12.27609 9.32018,-26.30109 9.7999,-25.5 9.7999,-25.5 15.21141,-25.7946 5.4115,-0.2946 5.4115,-0.2946 15.10568,25 11.43888,29.84695 11.13421,27.98567 4.51727,27.59686 -5.14399,-0.3023 -5.14399,-0.3023 -7.13392,-5.5523 -1.98993,-5.25 -1.98993,-5.25 -12.38076,-5.25 -10.39083,0 -10.39083,0 -11.35021,2.75 -2.36987,6.79304 -3.32738,7.73514 -8.18286,8.05109 -2.54489,0.1656 -4.84294,-0.0594 -5.10679,-0.5 z m 30.29853,-22.0674 c 0,-0.42145 -1.23948,-3.99334 -2.75441,-7.93752 -2.75441,-7.17125 -2.75441,-7.17125 -5.90595,0.76627 -3.15154,7.93752 -3.15154,7.93752 2.75441,7.93752 3.24827,0 5.90595,-0.34482 5.90595,-0.76627 z M 225.79396,107.41333 c -11.98475,-20.833307 -11.4847,-16.801116 -3.73672,-30.131856 6.38127,-10.979253 6.38127,-10.979253 2.29467,-18.129552 -4.08661,-7.1503 -4.08661,-7.1503 -8.88127,-7.1503 -5.73404,0 -5.72543,-0.05212 -1.22445,7.412385 4.01639,6.660836 3.97289,7.664864 -0.6485,14.968561 -3.82229,6.040803 -3.06912,6.741787 -14.91439,-13.880946 -5.05454,-8.8 -10.08565,-17.4625 -11.18026,-19.25 -1.99019,-3.25 -1.99019,-3.25 19.45272,-3.25 21.44291,0 21.44291,0 29.56708,14.159783 8.12417,14.159782 8.12417,14.159782 1.49015,25.584094 -6.63401,11.424315 -6.63401,11.424315 -4.55154,15.068205 1.14536,2.00415 2.44969,3.76136 2.8985,3.90491 0.62115,0.19868 24.47191,-39.851979 26.14935,-43.910501 0.81813,-1.979446 -9.75885,-0.81418 -10.83333,1.193509 -1.67347,3.126913 -2.64216,2.464839 -6.50811,-4.448114 -6.19276,-11.073688 -5.33462,-11.551886 20.73011,-11.551886 17.52397,0 20.90374,0.229947 20.45786,1.391881 -0.29376,0.765535 -9.60524,17.078035 -20.69217,36.25 -11.08693,19.171961 -22.03222,38.115097 -24.32287,42.095857 -2.29065,3.98075 -4.44923,7.24325 -4.79683,7.25 -0.34761,0.007 -5.18511,-7.90247 -10.75,-17.57603 z"
       id="path4337" />
  </g>
</svg>
