<svg xmlns="http://www.w3.org/2000/svg" width="801px" height="845px" viewBox="0 0 801 845">
<path xmlns="http://www.w3.org/2000/svg" fill="#616161" class="jp-custom-icon jp-icon3 jp-icon-selectable" 
	d="
M738.000000,599.000000 
	C737.999878,619.328857 738.009277,639.157654 737.994812,658.986511 
	C737.989014,666.934814 733.986572,670.993347 726.122437,670.994324 
	C653.972168,671.003296 581.821899,671.004211 509.671600,670.992310 
	C502.160278,670.991089 498.008820,666.818481 498.007507,659.276550 
	C497.995880,592.625000 497.998016,525.973511 498.003967,459.321991 
	C498.004730,450.822723 501.906342,447.017944 510.571411,447.000946 
	C513.062195,446.996063 515.552979,447.000214 518.680237,447.000214 
	C518.796387,444.999603 518.982727,443.253784 518.985718,441.507599 
	C519.010254,427.344208 518.672607,413.171631 519.066162,399.019135 
	C519.998840,365.477570 532.933105,337.602509 559.186768,316.270508 
	C574.191284,304.078918 591.182678,297.275513 610.632568,295.860992 
	C636.322754,293.992645 658.657410,301.480255 678.315552,317.789124 
	C698.896729,334.863831 711.618042,356.662292 714.768921,383.084930 
	C716.823181,400.311066 716.366150,417.838593 716.979919,435.233063 
	C717.108276,438.871582 716.998535,442.518494 716.998535,447.001343 
	C720.472961,447.001343 723.562073,446.978119 726.650757,447.005981 
	C733.789185,447.070374 737.990417,451.305908 737.992493,458.531281 
	C738.006104,505.187531 737.999756,551.843750 738.000000,599.000000 
M686.169434,386.321167 
	C684.202209,372.874786 678.159302,361.412323 669.619812,350.970001 
	C656.586304,335.032257 639.597351,327.122864 619.408630,326.113678 
	C607.678467,325.527313 596.512085,328.608551 586.218628,334.382050 
	C562.178833,347.865814 549.929749,368.957886 548.176208,395.949982 
	C547.195801,411.041962 547.989929,426.249786 548.011963,441.405396 
	C548.014526,443.160858 548.194458,444.916016 548.289307,446.620117 
	C595.092957,446.620117 641.302185,446.620117 688.661255,446.620117 
	C687.953979,426.508026 687.261108,406.805328 686.169434,386.321167 
z"/>
<path xmlns="http://www.w3.org/2000/svg" fill="#616161" class="jp-custom-icon jp-icon3 jp-icon-selectable" 
	d="
M445.000000,137.000000 
	C536.813049,137.000015 628.126404,137.126938 719.438660,136.851227 
	C731.881165,136.813644 741.407166,146.194763 741.147888,158.507431 
	C740.642883,182.491470 741.009644,206.493652 740.995605,230.488327 
	C740.988464,242.735672 732.716858,250.995651 720.446045,250.996033 
	C547.484497,251.001495 374.522919,251.001450 201.561340,250.996048 
	C189.286880,250.995667 181.011475,242.738358 181.004440,230.495682 
	C180.990463,206.167755 180.990570,181.839828 181.004395,157.511902 
	C181.011368,145.264450 189.282990,137.005264 201.553741,137.004120 
	C282.535828,136.996597 363.517914,137.000092 445.000000,137.000000 
z"/>
<path xmlns="http://www.w3.org/2000/svg" fill="#616161" class="jp-custom-icon jp-icon3 jp-icon-selectable" 
	d="
M486.000000,775.998657 
	C353.514160,775.998657 221.528183,775.927307 89.542709,776.146667 
	C79.949707,776.162598 71.798676,770.599548 71.814911,758.597900 
	C72.076706,565.119019 71.999863,371.639648 71.999847,178.160385 
	C71.999847,175.691223 71.999847,173.222061 71.999847,170.227814 
	C62.611301,170.227814 53.688507,170.227814 43.427563,170.227814 
	C57.732803,141.585114 71.557716,113.904144 85.980057,85.026985 
	C100.277077,113.596474 114.120583,141.259720 128.424072,169.842133 
	C118.648087,169.842133 109.646706,169.842133 100.332687,169.842133 
	C100.332687,362.470093 100.332687,554.354919 100.332687,746.620605 
	C277.708801,746.620605 454.928070,746.620605 632.829712,746.620605 
	C632.829712,737.757935 632.829712,728.888367 632.829712,718.974915 
	C661.407043,733.216614 689.020264,746.977905 718.028381,761.434326 
	C689.544922,775.690369 661.832214,789.560608 633.203613,803.889282 
	C633.203613,794.085144 633.203613,785.506958 633.203613,775.998657 
	C583.961853,775.998657 535.230896,775.998657 486.000000,775.998657 
z"/>
<path xmlns="http://www.w3.org/2000/svg" fill="#616161" class="jp-custom-icon jp-icon3 jp-icon-selectable" 
	d="
M189.462997,561.267212 
	C194.206940,560.057251 198.622803,558.142334 203.043198,558.131836 
	C279.851929,557.948914 356.661804,558.147339 433.469818,557.850342 
	C445.825714,557.802551 455.411530,567.154968 455.149750,579.537415 
	C454.639221,603.685669 454.733429,627.856812 455.137848,652.009094 
	C455.288208,660.987854 444.963867,671.157593 436.026642,671.131714 
	C357.385376,670.904053 278.742828,670.894165 200.101700,671.145691 
	C191.189301,671.174194 180.634293,660.999329 180.833405,651.636475 
	C181.336334,627.987915 181.235504,604.317871 180.868591,580.664307 
	C180.744949,572.694214 183.081192,566.437134 189.462997,561.267212 
z"/>
<path xmlns="http://www.w3.org/2000/svg" fill="#616161" class="jp-custom-icon jp-icon3 jp-icon-selectable" 
	d="
M242.000000,461.000000 
	C227.511383,460.999695 213.522690,461.030701 199.534195,460.988190 
	C190.073975,460.959442 181.029373,451.998047 181.014694,442.586761 
	C180.974960,417.107574 180.966629,391.628235 181.020004,366.149078 
	C181.039078,357.047943 190.144424,348.021454 199.298752,348.016388 
	C254.420502,347.985992 309.542297,347.981476 364.664093,348.018463 
	C375.257812,348.025574 383.952515,356.668701 383.978577,367.214142 
	C384.040710,392.360168 384.027405,417.506531 383.984039,442.652618 
	C383.967834,452.056519 374.905334,460.982574 365.399902,460.988464 
	C324.433258,461.013885 283.466644,460.999725 242.000000,461.000000 
z"/>
</svg>