<svg xmlns="http://www.w3.org/2000/svg" width="801px" height="845px" viewBox="0 0 801 845">
<path xmlns="http://www.w3.org/2000/svg" fill="#616161" class="jp-custom-icon jp-icon3 jp-icon-selectable" 
	d="
M387.000000,138.000000 
	C498.142059,138.000015 608.784363,138.106552 719.425842,137.852219 
	C731.901794,137.823547 741.405090,147.216324 741.147522,159.494492 
	C740.644409,183.478592 741.009399,207.480728 740.995667,231.475388 
	C740.988647,243.724152 732.716797,251.995575 720.458984,251.995956 
	C547.497437,252.001495 374.535889,252.001434 201.574356,251.996124 
	C189.289490,251.995743 181.011719,243.747238 181.004547,231.508698 
	C180.990280,207.180771 180.990768,182.852859 181.004318,158.524933 
	C181.011139,146.276291 189.283295,138.005981 201.540726,138.004242 
	C263.193817,137.995529 324.846924,138.000107 387.000000,138.000000 
z"/>
<path xmlns="http://www.w3.org/2000/svg" fill="#616161" class="jp-custom-icon jp-icon3 jp-icon-selectable" 
	d="
M585.000000,602.000000 
	C584.999939,619.325134 584.662598,636.159729 585.135315,652.971619 
	C585.389893,662.026428 574.929565,672.140991 566.068176,672.127258 
	C443.961212,671.938232 321.853912,672.004211 199.746674,671.990967 
	C189.901947,671.989868 181.021255,663.118469 181.010071,653.290161 
	C180.981430,628.135742 181.228653,602.978149 180.877518,577.828613 
	C180.753326,568.934387 190.961166,558.888672 199.629715,558.899292 
	C321.570190,559.048645 443.510895,558.993164 565.451538,559.013611 
	C576.357910,559.015442 584.922241,567.620361 584.989990,578.511169 
	C585.037720,586.173828 584.999756,593.837036 585.000000,602.000000 
z"/>
<path xmlns="http://www.w3.org/2000/svg" fill="#616161" class="jp-custom-icon jp-icon3 jp-icon-selectable" 
	d="
M88.108398,89.952209 
	C98.405724,110.302505 108.714127,130.647202 118.993515,151.006561 
	C122.027649,157.015930 124.979767,163.066742 128.341644,169.849442 
	C118.648453,169.849442 109.747803,169.849442 100.429153,169.849442 
	C100.429153,362.281067 100.429153,554.170410 100.429153,746.530701 
	C277.650726,746.530701 454.991821,746.530701 632.848511,746.530701 
	C632.848511,737.834412 632.848511,729.237061 632.848511,719.024597 
	C661.517517,733.293213 689.138123,747.040100 718.055725,761.432434 
	C689.538452,775.702026 661.900940,789.531433 633.221680,803.882141 
	C633.221680,794.086548 633.221680,785.407837 633.221680,775.998657 
	C630.080139,775.998657 627.647522,775.998657 625.214905,775.998657 
	C446.394989,775.998535 267.575104,775.987793 88.755196,776.036011 
	C81.436424,776.037964 75.688042,773.737122 72.946358,766.585999 
	C72.095207,764.365967 72.036018,761.746521 72.035538,759.309814 
	C71.996758,565.657715 71.999886,372.005585 71.999870,178.353455 
	C71.999870,175.868805 71.999863,173.384155 71.999863,169.951614 
	C63.762573,169.951614 55.847210,169.951614 47.537605,169.537201 
	C47.694538,167.563828 48.088642,165.926636 48.820351,164.457596 
	C60.280804,141.448654 71.741646,118.439545 83.350739,95.505569 
	C84.420113,93.392990 86.498528,91.791183 88.108398,89.952209 
z"/>
<path xmlns="http://www.w3.org/2000/svg" fill="#616161" class="jp-custom-icon jp-icon3 jp-icon-selectable" 
	d="
M401.000000,462.000000 
	C334.043701,462.000031 267.586212,461.806152 201.132416,462.212341 
	C191.340515,462.272186 180.483932,451.985443 180.776566,441.675262 
	C181.470917,417.211090 181.309845,392.707855 180.840012,368.233002 
	C180.664536,359.091675 191.110733,348.815643 200.221436,348.846802 
	C278.335815,349.114105 356.451508,348.995880 434.566803,349.004578 
	C446.758179,349.005951 454.990509,357.324249 454.996460,369.619904 
	C455.008209,393.937256 454.656525,418.261902 455.175049,442.568207 
	C455.372375,451.815918 444.949646,462.702484 435.468567,462.153870 
	C424.180542,461.500610 412.825836,462.000000 401.000000,462.000000 
z"/>
<path xmlns="http://www.w3.org/2000/svg" fill="#616161" class="jp-custom-icon jp-icon3 jp-icon-selectable" 
	d="
M88.048347,89.607422 
	C86.498528,91.791183 84.420113,93.392990 83.350739,95.505569 
	C71.741646,118.439545 60.280804,141.448654 48.820351,164.457596 
	C48.088642,165.926636 47.694538,167.563828 47.072289,169.478149 
	C46.205418,169.833496 45.409630,169.833496 43.604004,169.833496 
	C57.749477,141.531204 71.589005,113.841034 85.790382,85.426895 
	C86.780373,87.154594 87.384331,88.208618 88.048347,89.607422 
z"/>
</svg>