<svg xmlns="http://www.w3.org/2000/svg" width="801px" height="845px" viewBox="0 0 801 845">
<path xmlns="http://www.w3.org/2000/svg" class="jp-custom-icon jp-icon3 jp-icon-selectable" fill="#616161" 
	d="
M465.000000,137.000000 
	C550.147888,137.000031 634.796204,137.135956 719.443115,136.850784 
	C731.874146,136.808899 741.408020,146.187546 741.148132,158.511917 
	C740.642395,182.495926 741.009705,206.498123 740.995605,230.492798 
	C740.988403,242.737381 732.714661,250.995651 720.441528,250.996048 
	C547.479980,251.001465 374.518402,251.001480 201.556839,250.996048 
	C189.284561,250.995667 181.011414,242.736694 181.004410,230.491180 
	C180.990524,206.163254 180.990494,181.835327 181.004410,157.507401 
	C181.011429,145.262772 189.285263,137.005096 201.558258,137.004089 
	C289.205505,136.996857 376.852753,137.000092 465.000000,137.000000 
z"/>
<path xmlns="http://www.w3.org/2000/svg" class="jp-custom-icon jp-icon3 jp-icon-selectable" fill="#616161" 
	d="
M635.148926,720.089355 
	C662.544739,733.712830 689.585266,747.259888 717.960327,761.475464 
	C689.524719,775.703430 661.804504,789.573425 633.158691,803.906555 
	C633.158691,794.057861 633.158691,785.472473 633.158691,775.998657 
	C630.247986,775.998657 627.834717,775.998657 625.421509,775.998657 
	C446.590027,775.998535 267.758545,775.986877 88.927094,776.039978 
	C81.632454,776.042114 75.823845,773.875000 73.007057,766.744446 
	C72.134315,764.535095 72.038582,761.913086 72.038055,759.479919 
	C71.996544,565.648621 71.999878,371.817291 71.999847,177.985962 
	C71.999840,175.530502 71.999847,173.075027 71.999847,170.132675 
	C62.473114,170.132675 53.538857,170.132675 43.464531,170.132675 
	C57.739803,141.563171 71.583488,113.857414 85.991348,85.022568 
	C100.325996,113.683899 114.169044,141.362305 128.404572,169.825470 
	C118.663963,169.825470 109.765915,169.825470 100.439240,169.825470 
	C100.439240,362.269653 100.439240,554.167786 100.439240,746.533813 
	C277.665100,746.533813 455.014313,746.533813 633.001404,746.533813 
	C633.001404,738.783020 632.924316,731.166138 633.081543,723.554016 
	C633.106140,722.362305 634.196167,721.192627 635.148926,720.089355 
z"/>
<path xmlns="http://www.w3.org/2000/svg" class="jp-custom-icon jp-icon3 jp-icon-selectable" fill="#616161" 
	d="
M463.795166,663.684082 
	C458.944733,669.057251 453.354919,671.110291 446.353668,671.097351 
	C364.544098,670.945618 282.733490,670.850952 200.925110,671.198853 
	C191.268799,671.239868 180.533325,660.920715 180.790894,650.957153 
	C181.427948,626.314026 181.262314,601.639160 180.862076,576.986084 
	C180.716492,568.018616 191.031570,557.844238 199.978745,557.868408 
	C282.621094,558.091919 365.264313,557.994446 447.907257,558.007080 
	C459.506805,558.008850 467.978638,566.433594 467.991608,577.972778 
	C468.018402,601.799255 467.876343,625.626953 468.096619,649.451355 
	C468.145020,654.685852 466.992889,659.222717 463.795166,663.684082 
z"/>
<path xmlns="http://www.w3.org/2000/svg" class="jp-custom-icon jp-icon3 jp-icon-selectable" fill="#616161" 
	d="
M557.000000,367.000000 
	C556.999878,427.464691 556.982544,487.429382 557.045776,547.393982 
	C557.049255,550.719543 557.078552,554.505432 553.650879,555.378540 
	C550.837891,556.095093 546.851746,555.555786 544.433716,553.972473 
	C506.113861,528.881958 467.962555,503.533997 429.774536,478.242218 
	C415.618622,468.866821 401.455353,459.502563 387.319794,450.096619 
	C381.033081,445.913391 380.988831,440.087341 387.222076,435.936890 
	C426.457855,409.811432 465.689392,383.679504 504.966309,357.616028 
	C518.141479,348.873199 531.337463,340.149567 544.790222,331.848694 
	C547.199219,330.362274 551.254211,330.038330 553.899048,330.988129 
	C555.559692,331.584442 556.774353,335.530975 556.863098,338.021729 
	C557.200989,347.504089 556.999756,357.005615 557.000000,367.000000 
z"/>
<path xmlns="http://www.w3.org/2000/svg" class="jp-custom-icon jp-icon3 jp-icon-selectable" fill="#616161" 
	d="
M662.999878,373.002136 
	C684.378784,358.950073 705.376892,344.957733 726.473572,331.115723 
	C731.136841,328.056000 738.202637,330.252441 738.172729,337.496490 
	C737.882996,407.806915 738.031677,478.119171 737.858948,548.430359 
	C737.853027,550.836487 736.303223,554.662598 734.552917,555.299866 
	C732.057861,556.208313 728.103699,555.703186 725.818054,554.206116 
	C687.347046,529.008789 649.040222,503.560883 610.693237,478.174072 
	C596.525146,468.794342 582.332336,459.451782 568.181335,450.046326 
	C561.987366,445.929535 562.066284,440.056030 568.361389,435.876099 
	C598.986938,415.540466 629.630798,395.232300 660.262817,374.906281 
	C661.091248,374.356567 661.858765,373.714844 662.999878,373.002136 
z"/>
<path xmlns="http://www.w3.org/2000/svg" class="jp-custom-icon jp-icon3 jp-icon-selectable" fill="#616161" 
	d="
M345.865936,362.817200 
	C345.963379,389.902039 346.020630,416.563477 345.975037,443.224792 
	C345.960510,451.719543 336.809052,460.960968 328.346283,460.971985 
	C285.187714,461.028076 242.029007,461.022461 198.870422,460.978516 
	C190.134705,460.969635 181.033173,451.740753 181.017441,442.941589 
	C180.971573,417.279785 180.967712,391.617798 181.019791,365.955994 
	C181.037552,357.196228 190.207504,348.027222 198.972824,348.019165 
	C241.964783,347.979645 284.956940,347.947144 327.948639,348.056610 
	C334.781342,348.074005 339.684326,351.915222 343.185669,357.593597 
	C344.139221,359.140137 344.923798,360.790863 345.865936,362.817200 
z"/>
</svg>