<svg xmlns="http://www.w3.org/2000/svg" width="24" height="24" viewBox="0 0 24 24">
  <path d="M19.14,12.94a7.09,7.09,0,0,0,.06-1,7.09,7.09,0,0,0-.06-1l2.11-1.65a.5.5,0,0,0,.12-.65l-2-3.46a.5.5,0,0,0-.61-.22l-2.49,1a7,7,0,0,0-1.6-.94l-.38-2.65A.5.5,0,0,0,14.65,3H9.35a.5.5,0,0,0-.49.42L8.48,6.07a7,7,0,0,0-1.6.94l-2.49-1a.5.5,0,0,0-.61.22l-2,3.46a.5.5,0,0,0,.12.65l2.11,1.65a7.09,7.09,0,0,0-.06,1,7.09,7.09,0,0,0,.06,1L2.52,14.59a.5.5,0,0,0-.12.65l2,3.46a.5.5,0,0,0,.61.22l2.49-1a7,7,0,0,0,1.6.94l.38,2.65a.5.5,0,0,0,.49.42h5.3a.5.5,0,0,0,.49-.42l.38-2.65a7,7,0,0,0,1.6-.94l2.49,1a.5.5,0,0,0,.61-.22l2-3.46a.5.5,0,0,0-.12-.65Z" fill="none" stroke="currentColor" stroke-width="2"/>
  <circle cx="12" cy="12" r="3" fill="currentColor"/>
</svg>
