<?xml version="1.0" encoding="utf-8"?>
<svg class="sidebar-logo" width="253" height="16" viewBox="0 0 253 16" fill="none" xmlns="http://www.w3.org/2000/svg">
  <rect x="158" width="95" height="16" rx="3" fill="#BEBEC1"/>
  <path d="M164.789 12V4H169.992V5.21484H166.238V7.38672H169.723V8.60156H166.238V10.7852H170.023V12H164.789ZM172.498 12H170.951L173.768 4H175.557L178.377 12H176.83L174.693 5.64062H174.631L172.498 12ZM172.549 8.86328H176.768V10.0273H172.549V8.86328ZM179.431 12V4H182.431C183.045 4 183.561 4.10677 183.978 4.32031C184.397 4.53385 184.713 4.83333 184.927 5.21875C185.143 5.60156 185.251 6.04818 185.251 6.55859C185.251 7.07161 185.142 7.51693 184.923 7.89453C184.707 8.26953 184.388 8.5599 183.966 8.76562C183.544 8.96875 183.026 9.07031 182.411 9.07031H180.274V7.86719H182.216C182.575 7.86719 182.869 7.81771 183.099 7.71875C183.328 7.61719 183.497 7.47005 183.606 7.27734C183.718 7.08203 183.774 6.84245 183.774 6.55859C183.774 6.27474 183.718 6.03255 183.606 5.83203C183.494 5.62891 183.324 5.47526 183.095 5.37109C182.866 5.26432 182.57 5.21094 182.208 5.21094H180.88V12H179.431ZM183.563 8.375L185.544 12H183.927L181.981 8.375H183.563ZM186.585 12V4H188.034V10.7852H191.558V12H186.585ZM191.463 4H193.1L195.057 7.53906H195.135L197.092 4H198.729L195.818 9.01563V12H194.373V9.01563L191.463 4ZM203.511 12H201.964L204.78 4H206.569L209.39 12H207.843L205.706 5.64062H205.644L203.511 12ZM203.562 8.86328H207.78V10.0273H203.562V8.86328ZM216.915 6.69922H215.454C215.412 6.45964 215.336 6.2474 215.224 6.0625C215.112 5.875 214.972 5.71615 214.806 5.58594C214.639 5.45573 214.449 5.35807 214.235 5.29297C214.024 5.22526 213.797 5.19141 213.552 5.19141C213.117 5.19141 212.731 5.30078 212.396 5.51953C212.06 5.73568 211.797 6.05339 211.606 6.47266C211.416 6.88932 211.321 7.39844 211.321 8C211.321 8.61198 211.416 9.1276 211.606 9.54687C211.799 9.96354 212.062 10.2786 212.396 10.4922C212.731 10.7031 213.116 10.8086 213.548 10.8086C213.787 10.8086 214.011 10.7773 214.22 10.7148C214.431 10.6497 214.619 10.5547 214.786 10.4297C214.955 10.3047 215.097 10.151 215.212 9.96875C215.329 9.78646 215.41 9.57812 215.454 9.34375L216.915 9.35156C216.86 9.73177 216.742 10.0885 216.56 10.4219C216.38 10.7552 216.144 11.0495 215.853 11.3047C215.561 11.5573 215.22 11.7552 214.829 11.8984C214.438 12.0391 214.005 12.1094 213.528 12.1094C212.825 12.1094 212.198 11.9466 211.646 11.6211C211.093 11.2956 210.659 10.8255 210.341 10.2109C210.023 9.59635 209.864 8.85937 209.864 8C209.864 7.13802 210.024 6.40104 210.345 5.78906C210.665 5.17448 211.101 4.70443 211.653 4.37891C212.205 4.05339 212.83 3.89062 213.528 3.89062C213.974 3.89062 214.388 3.95312 214.771 4.07812C215.153 4.20312 215.494 4.38672 215.794 4.62891C216.093 4.86849 216.34 5.16276 216.532 5.51172C216.728 5.85807 216.855 6.25391 216.915 6.69922ZM225.09 6.69922H223.629C223.587 6.45964 223.51 6.2474 223.398 6.0625C223.286 5.875 223.147 5.71615 222.98 5.58594C222.814 5.45573 222.624 5.35807 222.41 5.29297C222.199 5.22526 221.971 5.19141 221.727 5.19141C221.292 5.19141 220.906 5.30078 220.57 5.51953C220.234 5.73568 219.971 6.05339 219.781 6.47266C219.591 6.88932 219.496 7.39844 219.496 8C219.496 8.61198 219.591 9.1276 219.781 9.54687C219.974 9.96354 220.237 10.2786 220.57 10.4922C220.906 10.7031 221.29 10.8086 221.723 10.8086C221.962 10.8086 222.186 10.7773 222.395 10.7148C222.605 10.6497 222.794 10.5547 222.961 10.4297C223.13 10.3047 223.272 10.151 223.387 9.96875C223.504 9.78646 223.585 9.57812 223.629 9.34375L225.09 9.35156C225.035 9.73177 224.917 10.0885 224.734 10.4219C224.555 10.7552 224.319 11.0495 224.027 11.3047C223.736 11.5573 223.395 11.7552 223.004 11.8984C222.613 12.0391 222.18 12.1094 221.703 12.1094C221 12.1094 220.372 11.9466 219.82 11.6211C219.268 11.2956 218.833 10.8255 218.516 10.2109C218.198 9.59635 218.039 8.85937 218.039 8C218.039 7.13802 218.199 6.40104 218.52 5.78906C218.84 5.17448 219.276 4.70443 219.828 4.37891C220.38 4.05339 221.005 3.89062 221.703 3.89062C222.148 3.89062 222.563 3.95312 222.945 4.07812C223.328 4.20312 223.669 4.38672 223.969 4.62891C224.268 4.86849 224.514 5.16276 224.707 5.51172C224.902 5.85807 225.03 6.25391 225.09 6.69922ZM226.417 12V4H231.62V5.21484H227.866V7.38672H231.351V8.60156H227.866V10.7852H231.651V12H226.417ZM237.446 6.19922C237.41 5.85807 237.256 5.59245 236.985 5.40234C236.717 5.21224 236.368 5.11719 235.938 5.11719C235.636 5.11719 235.377 5.16276 235.161 5.25391C234.945 5.34505 234.78 5.46875 234.665 5.625C234.55 5.78125 234.492 5.95964 234.489 6.16016C234.489 6.32682 234.527 6.47135 234.603 6.59375C234.681 6.71615 234.786 6.82031 234.919 6.90625C235.052 6.98958 235.199 7.0599 235.36 7.11719C235.522 7.17448 235.685 7.22266 235.849 7.26172L236.599 7.44922C236.901 7.51953 237.191 7.61458 237.47 7.73437C237.751 7.85417 238.002 8.00521 238.224 8.1875C238.448 8.36979 238.625 8.58984 238.755 8.84766C238.885 9.10547 238.95 9.40755 238.95 9.75391C238.95 10.2227 238.83 10.6354 238.591 10.9922C238.351 11.3464 238.005 11.6237 237.552 11.8242C237.101 12.0221 236.556 12.1211 235.915 12.1211C235.293 12.1211 234.752 12.0247 234.294 11.832C233.838 11.6393 233.481 11.3581 233.224 10.9883C232.968 10.6185 232.83 10.168 232.81 9.63672H234.235C234.256 9.91536 234.342 10.1471 234.493 10.332C234.644 10.5169 234.841 10.6549 235.083 10.7461C235.328 10.8372 235.601 10.8828 235.903 10.8828C236.218 10.8828 236.494 10.8359 236.731 10.7422C236.971 10.6458 237.159 10.513 237.294 10.3437C237.429 10.1719 237.498 9.97135 237.501 9.74219C237.498 9.53385 237.437 9.36198 237.317 9.22656C237.198 9.08854 237.03 8.97396 236.813 8.88281C236.6 8.78906 236.35 8.70573 236.063 8.63281L235.153 8.39844C234.494 8.22917 233.974 7.97266 233.591 7.62891C233.211 7.28255 233.021 6.82292 233.021 6.25C233.021 5.77865 233.148 5.36589 233.403 5.01172C233.661 4.65755 234.011 4.38281 234.454 4.1875C234.897 3.98958 235.398 3.89062 235.958 3.89062C236.526 3.89062 237.023 3.98958 237.45 4.1875C237.88 4.38281 238.217 4.65495 238.462 5.00391C238.707 5.35026 238.833 5.7487 238.841 6.19922H237.446ZM244.59 6.19922C244.553 5.85807 244.4 5.59245 244.129 5.40234C243.861 5.21224 243.512 5.11719 243.082 5.11719C242.78 5.11719 242.521 5.16276 242.305 5.25391C242.089 5.34505 241.923 5.46875 241.809 5.625C241.694 5.78125 241.635 5.95964 241.633 6.16016C241.633 6.32682 241.671 6.47135 241.746 6.59375C241.824 6.71615 241.93 6.82031 242.063 6.90625C242.195 6.98958 242.342 7.0599 242.504 7.11719C242.665 7.17448 242.828 7.22266 242.992 7.26172L243.742 7.44922C244.044 7.51953 244.335 7.61458 244.613 7.73437C244.895 7.85417 245.146 8.00521 245.367 8.1875C245.591 8.36979 245.768 8.58984 245.898 8.84766C246.029 9.10547 246.094 9.40755 246.094 9.75391C246.094 10.2227 245.974 10.6354 245.734 10.9922C245.495 11.3464 245.148 11.6237 244.695 11.8242C244.245 12.0221 243.699 12.1211 243.059 12.1211C242.436 12.1211 241.896 12.0247 241.438 11.832C240.982 11.6393 240.625 11.3581 240.367 10.9883C240.112 10.6185 239.974 10.168 239.953 9.63672H241.379C241.4 9.91536 241.486 10.1471 241.637 10.332C241.788 10.5169 241.984 10.6549 242.227 10.7461C242.471 10.8372 242.745 10.8828 243.047 10.8828C243.362 10.8828 243.638 10.8359 243.875 10.7422C244.115 10.6458 244.302 10.513 244.438 10.3437C244.573 10.1719 244.642 9.97135 244.645 9.74219C244.642 9.53385 244.581 9.36198 244.461 9.22656C244.341 9.08854 244.173 8.97396 243.957 8.88281C243.743 8.78906 243.493 8.70573 243.207 8.63281L242.297 8.39844C241.638 8.22917 241.117 7.97266 240.734 7.62891C240.354 7.28255 240.164 6.82292 240.164 6.25C240.164 5.77865 240.292 5.36589 240.547 5.01172C240.805 4.65755 241.155 4.38281 241.598 4.1875C242.04 3.98958 242.542 3.89062 243.102 3.89062C243.669 3.89062 244.167 3.98958 244.594 4.1875C245.023 4.38281 245.361 4.65495 245.605 5.00391C245.85 5.35026 245.977 5.7487 245.984 6.19922H244.59Z" fill="#18191E"/>
  <path d="M2.64205 14H0.392045L4.48864 2.36364H7.09091L11.1932 14H8.94318L5.83523 4.75H5.74432L2.64205 14ZM2.71591 9.4375H8.85227V11.1307H2.71591V9.4375ZM12.7259 14V2.36364H17.0895C17.9834 2.36364 18.7334 2.5303 19.3395 2.86364C19.9493 3.19697 20.4096 3.6553 20.7202 4.23864C21.0346 4.81818 21.1918 5.47727 21.1918 6.21591C21.1918 6.96212 21.0346 7.625 20.7202 8.20455C20.4058 8.78409 19.9418 9.24053 19.3281 9.57386C18.7145 9.90341 17.9588 10.0682 17.0611 10.0682H14.169V8.33523H16.777C17.2997 8.33523 17.7277 8.24432 18.0611 8.0625C18.3944 7.88068 18.6406 7.63068 18.7997 7.3125C18.9626 6.99432 19.044 6.62879 19.044 6.21591C19.044 5.80303 18.9626 5.43939 18.7997 5.125C18.6406 4.81061 18.3925 4.56629 18.0554 4.39205C17.7221 4.21402 17.2921 4.125 16.7656 4.125H14.8338V14H12.7259ZM25.1307 2.36364V14H23.0227V2.36364H25.1307ZM35.3253 14H31.3821V2.36364H35.4048C36.5601 2.36364 37.5526 2.59659 38.3821 3.0625C39.2154 3.52462 39.8556 4.18939 40.3026 5.05682C40.7495 5.92424 40.973 6.96212 40.973 8.17045C40.973 9.38258 40.7476 10.4242 40.2969 11.2955C39.8499 12.1667 39.2041 12.8352 38.3594 13.3011C37.5185 13.767 36.5071 14 35.3253 14ZM33.4901 12.1761H35.223C36.0336 12.1761 36.7098 12.0284 37.2514 11.733C37.7931 11.4337 38.2003 10.9886 38.473 10.3977C38.7457 9.80303 38.8821 9.06061 38.8821 8.17045C38.8821 7.2803 38.7457 6.54167 38.473 5.95455C38.2003 5.36364 37.7969 4.92235 37.2628 4.63068C36.7325 4.33523 36.0734 4.1875 35.2855 4.1875H33.4901V12.1761ZM46.6918 14.1705C45.8395 14.1705 45.1009 13.983 44.4759 13.608C43.8509 13.233 43.366 12.7083 43.0213 12.0341C42.6804 11.3598 42.5099 10.572 42.5099 9.67045C42.5099 8.76894 42.6804 7.97917 43.0213 7.30114C43.366 6.62311 43.8509 6.09659 44.4759 5.72159C45.1009 5.34659 45.8395 5.15909 46.6918 5.15909C47.544 5.15909 48.2827 5.34659 48.9077 5.72159C49.5327 6.09659 50.0156 6.62311 50.3565 7.30114C50.7012 7.97917 50.8736 8.76894 50.8736 9.67045C50.8736 10.572 50.7012 11.3598 50.3565 12.0341C50.0156 12.7083 49.5327 13.233 48.9077 13.608C48.2827 13.983 47.544 14.1705 46.6918 14.1705ZM46.7031 12.5227C47.1652 12.5227 47.5516 12.3958 47.8622 12.142C48.1728 11.8845 48.4039 11.5398 48.5554 11.108C48.7107 10.6761 48.7884 10.1951 48.7884 9.66477C48.7884 9.13068 48.7107 8.64773 48.5554 8.21591C48.4039 7.7803 48.1728 7.43371 47.8622 7.17614C47.5516 6.91856 47.1652 6.78977 46.7031 6.78977C46.2296 6.78977 45.8357 6.91856 45.5213 7.17614C45.2107 7.43371 44.9777 7.7803 44.8224 8.21591C44.6709 8.64773 44.5952 9.13068 44.5952 9.66477C44.5952 10.1951 44.6709 10.6761 44.8224 11.108C44.9777 11.5398 45.2107 11.8845 45.5213 12.142C45.8357 12.3958 46.2296 12.5227 46.7031 12.5227ZM56.4261 14.1705C55.5549 14.1705 54.8068 13.9792 54.1818 13.5966C53.5606 13.214 53.0814 12.6856 52.7443 12.0114C52.411 11.3333 52.2443 10.553 52.2443 9.67045C52.2443 8.78409 52.4148 8.00189 52.7557 7.32386C53.0966 6.64205 53.5777 6.11174 54.1989 5.73295C54.8239 5.35038 55.5625 5.15909 56.4148 5.15909C57.1231 5.15909 57.75 5.28977 58.2955 5.55114C58.8447 5.80871 59.2822 6.17424 59.608 6.64773C59.9337 7.11742 60.1193 7.66667 60.1648 8.29545H58.1989C58.1193 7.875 57.9299 7.52462 57.6307 7.24432C57.3352 6.96023 56.9394 6.81818 56.4432 6.81818C56.0227 6.81818 55.6534 6.93182 55.3352 7.15909C55.017 7.38258 54.7689 7.70455 54.5909 8.125C54.4167 8.54545 54.3295 9.04924 54.3295 9.63636C54.3295 10.2311 54.4167 10.7424 54.5909 11.1705C54.7652 11.5947 55.0095 11.9223 55.3239 12.1534C55.642 12.3807 56.0152 12.4943 56.4432 12.4943C56.7462 12.4943 57.017 12.4375 57.2557 12.3239C57.4981 12.2064 57.7008 12.0379 57.8636 11.8182C58.0265 11.5985 58.1383 11.3314 58.1989 11.017H60.1648C60.1155 11.6345 59.9337 12.1818 59.6193 12.6591C59.3049 13.1326 58.8769 13.5038 58.3352 13.7727C57.7936 14.0379 57.1572 14.1705 56.4261 14.1705ZM67.4162 10.3295V5.27273H69.473V14H67.4787V12.4489H67.3878C67.1908 12.9375 66.867 13.3371 66.4162 13.6477C65.9692 13.9583 65.4181 14.1136 64.7628 14.1136C64.1908 14.1136 63.6851 13.9867 63.2457 13.733C62.8101 13.4754 62.4692 13.1023 62.223 12.6136C61.9768 12.1212 61.8537 11.5265 61.8537 10.8295V5.27273H63.9105V10.5114C63.9105 11.0644 64.062 11.5038 64.3651 11.8295C64.6681 12.1553 65.0658 12.3182 65.5582 12.3182C65.8613 12.3182 66.1548 12.2443 66.4389 12.0966C66.723 11.9489 66.956 11.7292 67.1378 11.4375C67.3234 11.142 67.4162 10.7727 67.4162 10.3295ZM71.5881 14V5.27273H73.554V6.75568H73.6562C73.8381 6.25568 74.1392 5.86553 74.5597 5.58523C74.9801 5.30114 75.482 5.15909 76.0653 5.15909C76.6562 5.15909 77.1544 5.30303 77.5597 5.59091C77.9688 5.875 78.2566 6.26326 78.4233 6.75568H78.5142C78.7074 6.27083 79.0331 5.88447 79.4915 5.59659C79.9536 5.30492 80.5009 5.15909 81.1335 5.15909C81.9366 5.15909 82.5919 5.41288 83.0994 5.92045C83.607 6.42803 83.8608 7.16856 83.8608 8.14205V14H81.7983V8.46023C81.7983 7.91856 81.6544 7.52273 81.3665 7.27273C81.0786 7.01894 80.7263 6.89205 80.3097 6.89205C79.8134 6.89205 79.4252 7.04735 79.1449 7.35795C78.8684 7.66477 78.7301 8.06439 78.7301 8.55682V14H76.7131V8.375C76.7131 7.92424 76.5767 7.56439 76.304 7.29545C76.035 7.02651 75.6828 6.89205 75.2472 6.89205C74.9517 6.89205 74.6828 6.9678 74.4403 7.11932C74.1979 7.26705 74.0047 7.47727 73.8608 7.75C73.7169 8.01894 73.6449 8.33333 73.6449 8.69318V14H71.5881ZM89.8111 14.1705C88.9361 14.1705 88.1804 13.9886 87.544 13.625C86.9115 13.2576 86.4247 12.7386 86.0838 12.0682C85.7429 11.3939 85.5724 10.6004 85.5724 9.6875C85.5724 8.78977 85.7429 8.00189 86.0838 7.32386C86.4285 6.64205 86.9096 6.11174 87.527 5.73295C88.1444 5.35038 88.8698 5.15909 89.7031 5.15909C90.241 5.15909 90.7486 5.24621 91.2259 5.42045C91.7069 5.59091 92.1312 5.85606 92.4986 6.21591C92.8698 6.57576 93.1615 7.03409 93.3736 7.59091C93.5857 8.14394 93.6918 8.80303 93.6918 9.56818V10.1989H86.5384V8.8125H91.7202C91.7164 8.41856 91.6312 8.06818 91.4645 7.76136C91.2978 7.45076 91.0649 7.20644 90.7656 7.02841C90.4702 6.85038 90.1255 6.76136 89.7315 6.76136C89.3111 6.76136 88.9418 6.86364 88.6236 7.06818C88.3054 7.26894 88.0573 7.53409 87.8793 7.86364C87.705 8.18939 87.616 8.54735 87.6122 8.9375V10.1477C87.6122 10.6553 87.705 11.0909 87.8906 11.4545C88.0762 11.8144 88.3357 12.0909 88.669 12.2841C89.0024 12.4735 89.3925 12.5682 89.8395 12.5682C90.1387 12.5682 90.4096 12.5265 90.652 12.4432C90.8944 12.3561 91.1046 12.2292 91.2827 12.0625C91.4607 11.8958 91.5952 11.6894 91.6861 11.4432L93.6065 11.6591C93.4853 12.1667 93.2543 12.6098 92.9134 12.9886C92.5762 13.3636 92.1444 13.6553 91.6179 13.8636C91.0914 14.0682 90.4891 14.1705 89.8111 14.1705ZM97.4886 8.88636V14H95.4318V5.27273H97.3977V6.75568H97.5C97.7008 6.26705 98.0208 5.87879 98.4602 5.59091C98.9034 5.30303 99.4508 5.15909 100.102 5.15909C100.705 5.15909 101.229 5.28788 101.676 5.54545C102.127 5.80303 102.475 6.17614 102.722 6.66477C102.972 7.15341 103.095 7.74621 103.091 8.44318V14H101.034V8.76136C101.034 8.17803 100.883 7.72159 100.58 7.39205C100.28 7.0625 99.8655 6.89773 99.3352 6.89773C98.9754 6.89773 98.6553 6.97727 98.375 7.13636C98.0985 7.29167 97.8807 7.51705 97.7216 7.8125C97.5663 8.10795 97.4886 8.46591 97.4886 8.88636ZM109.54 5.27273V6.86364H104.523V5.27273H109.54ZM105.761 3.18182H107.818V11.375C107.818 11.6515 107.86 11.8636 107.943 12.0114C108.03 12.1553 108.144 12.2538 108.284 12.3068C108.424 12.3598 108.58 12.3864 108.75 12.3864C108.879 12.3864 108.996 12.3769 109.102 12.358C109.212 12.339 109.295 12.322 109.352 12.3068L109.699 13.9148C109.589 13.9527 109.432 13.9943 109.227 14.0398C109.027 14.0852 108.78 14.1117 108.489 14.1193C107.973 14.1345 107.509 14.0568 107.097 13.8864C106.684 13.7121 106.356 13.4432 106.114 13.0795C105.875 12.7159 105.758 12.2614 105.761 11.7159V3.18182ZM113.771 14.1761C113.218 14.1761 112.72 14.0777 112.277 13.8807C111.838 13.6799 111.489 13.3845 111.232 12.9943C110.978 12.6042 110.851 12.1231 110.851 11.5511C110.851 11.0587 110.942 10.6515 111.124 10.3295C111.305 10.0076 111.554 9.75 111.868 9.55682C112.182 9.36364 112.536 9.2178 112.93 9.11932C113.328 9.01705 113.739 8.94318 114.163 8.89773C114.675 8.8447 115.089 8.79735 115.408 8.75568C115.726 8.71023 115.957 8.64205 116.101 8.55114C116.249 8.45644 116.322 8.31061 116.322 8.11364V8.07955C116.322 7.65152 116.196 7.32008 115.942 7.08523C115.688 6.85038 115.322 6.73295 114.845 6.73295C114.341 6.73295 113.942 6.8428 113.646 7.0625C113.355 7.2822 113.158 7.54167 113.055 7.84091L111.135 7.56818C111.286 7.03788 111.536 6.5947 111.885 6.23864C112.233 5.87879 112.66 5.60985 113.163 5.43182C113.667 5.25 114.224 5.15909 114.834 5.15909C115.254 5.15909 115.673 5.20833 116.089 5.30682C116.506 5.4053 116.887 5.56818 117.232 5.79545C117.576 6.01894 117.853 6.32386 118.061 6.71023C118.273 7.09659 118.379 7.57955 118.379 8.15909V14H116.402V12.8011H116.334C116.209 13.0436 116.033 13.2708 115.805 13.483C115.582 13.6913 115.3 13.8598 114.959 13.9886C114.622 14.1136 114.226 14.1761 113.771 14.1761ZM114.305 12.6648C114.718 12.6648 115.076 12.5833 115.379 12.4205C115.682 12.2538 115.915 12.0341 116.078 11.7614C116.245 11.4886 116.328 11.1913 116.328 10.8693V9.84091C116.264 9.89394 116.154 9.94318 115.999 9.98864C115.847 10.0341 115.677 10.0739 115.487 10.108C115.298 10.142 115.11 10.1723 114.925 10.1989C114.739 10.2254 114.578 10.2481 114.442 10.267C114.135 10.3087 113.86 10.3769 113.618 10.4716C113.375 10.5663 113.184 10.6989 113.044 10.8693C112.904 11.036 112.834 11.2519 112.834 11.517C112.834 11.8958 112.972 12.1818 113.249 12.375C113.525 12.5682 113.877 12.6648 114.305 12.6648ZM124.805 5.27273V6.86364H119.788V5.27273H124.805ZM121.027 3.18182H123.084V11.375C123.084 11.6515 123.125 11.8636 123.209 12.0114C123.296 12.1553 123.41 12.2538 123.55 12.3068C123.69 12.3598 123.845 12.3864 124.016 12.3864C124.144 12.3864 124.262 12.3769 124.368 12.358C124.478 12.339 124.561 12.322 124.618 12.3068L124.964 13.9148C124.855 13.9527 124.697 13.9943 124.493 14.0398C124.292 14.0852 124.046 14.1117 123.754 14.1193C123.239 14.1345 122.775 14.0568 122.362 13.8864C121.949 13.7121 121.622 13.4432 121.379 13.0795C121.141 12.7159 121.023 12.2614 121.027 11.7159V3.18182ZM126.526 14V5.27273H128.582V14H126.526ZM127.56 4.03409C127.234 4.03409 126.954 3.92614 126.719 3.71023C126.484 3.49053 126.366 3.22727 126.366 2.92045C126.366 2.60985 126.484 2.34659 126.719 2.13068C126.954 1.91098 127.234 1.80114 127.56 1.80114C127.889 1.80114 128.17 1.91098 128.401 2.13068C128.635 2.34659 128.753 2.60985 128.753 2.92045C128.753 3.22727 128.635 3.49053 128.401 3.71023C128.17 3.92614 127.889 4.03409 127.56 4.03409ZM134.504 14.1705C133.652 14.1705 132.913 13.983 132.288 13.608C131.663 13.233 131.179 12.7083 130.834 12.0341C130.493 11.3598 130.322 10.572 130.322 9.67045C130.322 8.76894 130.493 7.97917 130.834 7.30114C131.179 6.62311 131.663 6.09659 132.288 5.72159C132.913 5.34659 133.652 5.15909 134.504 5.15909C135.357 5.15909 136.095 5.34659 136.72 5.72159C137.345 6.09659 137.828 6.62311 138.169 7.30114C138.514 7.97917 138.686 8.76894 138.686 9.67045C138.686 10.572 138.514 11.3598 138.169 12.0341C137.828 12.7083 137.345 13.233 136.72 13.608C136.095 13.983 135.357 14.1705 134.504 14.1705ZM134.516 12.5227C134.978 12.5227 135.364 12.3958 135.675 12.142C135.985 11.8845 136.216 11.5398 136.368 11.108C136.523 10.6761 136.601 10.1951 136.601 9.66477C136.601 9.13068 136.523 8.64773 136.368 8.21591C136.216 7.7803 135.985 7.43371 135.675 7.17614C135.364 6.91856 134.978 6.78977 134.516 6.78977C134.042 6.78977 133.648 6.91856 133.334 7.17614C133.023 7.43371 132.79 7.7803 132.635 8.21591C132.483 8.64773 132.408 9.13068 132.408 9.66477C132.408 10.1951 132.483 10.6761 132.635 11.108C132.79 11.5398 133.023 11.8845 133.334 12.142C133.648 12.3958 134.042 12.5227 134.516 12.5227ZM142.489 8.88636V14H140.432V5.27273H142.398V6.75568H142.5C142.701 6.26705 143.021 5.87879 143.46 5.59091C143.903 5.30303 144.451 5.15909 145.102 5.15909C145.705 5.15909 146.229 5.28788 146.676 5.54545C147.127 5.80303 147.475 6.17614 147.722 6.66477C147.972 7.15341 148.095 7.74621 148.091 8.44318V14H146.034V8.76136C146.034 8.17803 145.883 7.72159 145.58 7.39205C145.28 7.0625 144.866 6.89773 144.335 6.89773C143.975 6.89773 143.655 6.97727 143.375 7.13636C143.098 7.29167 142.881 7.51705 142.722 7.8125C142.566 8.10795 142.489 8.46591 142.489 8.88636Z" fill="black" fill-opacity="0.8"/>
</svg>

