<?xml version="1.0" encoding="utf-8"?>
<!-- Generator: Adobe Illustrator 28.0.0, SVG Export Plug-In . SVG Version: 6.00 Build 0)  -->
<svg version="1.1" id="Layer_2_00000083080521501120643010000001581969961319055491_"
	 xmlns="http://www.w3.org/2000/svg" xmlns:xlink="http://www.w3.org/1999/xlink" x="0px" y="0px" viewBox="0 0 1348 273.6"
	 style="enable-background:new 0 0 1348 273.6;" xml:space="preserve">
<style type="text/css">
	.st0{fill:#FFFFFF;}
</style>
<g id="Layer_1-2">
	<g>
		<path class="st0" d="M233.5,40.1C179.3-14,92.9-12.7,40.1,40.1C10.8,69.4,0,105.8,0,136.8c0,61.3,38.8,107.1,83.6,126
			c33.9,14.4,72.5,14.4,106.5,0c53.1-22.5,83.6-73.7,83.6-126C273.6,98.4,257.8,64.3,233.5,40.1L233.5,40.1z M53,57
			c21.7-22.8,51.9-35.8,83.4-35.8c31.1-0.1,60.3,12,82.2,33.9c28.6,28.6,33.3,62.2,33.9,77.3c0.1,1.6-2.1,2-2.7,0.6
			c-3.8-9.4-12-25.1-28.8-39.6C198.4,73.8,168.4,63,136.6,63S74.9,73.8,52.3,93.3c-16.6,14.3-24.6,29.4-28.5,38.6
			c-0.6,1.4-2.8,1-2.7-0.6C21.8,116.7,26.5,84.7,53,57L53,57z M233,187.9c-0.4,1.4-2.4,1.3-2.7-0.1c-1.3-6.1-3.5-11.9-6.7-17.6
			c-5-8.8-12-16.6-20.9-23.3c-17.7-13.3-41.1-20.6-65.8-20.6s-48.1,7.3-65.8,20.6c-8.9,6.7-15.9,14.5-20.9,23.3
			c-3.3,5.9-5.6,11.9-6.8,18.2c-0.3,1.4-2.3,1.5-2.7,0.1c-1.9-6.5-2.9-13.3-2.9-20.4c0-46.4,44.4-84.2,99.1-84.2
			s99.1,37.8,99.1,84.2C235.7,175,234.8,181.6,233,187.9L233,187.9z M123.9,250.6c-10.9-3.4-18.7-10.8-18.7-19.1
			c0-11.4,14.5-21,31.6-21s31.6,9.6,31.6,21c0,8.3-7.7,15.7-18.5,19.1C144.8,252.2,133.4,253.6,123.9,250.6L123.9,250.6z
			 M172.9,200.8c-9.8-7.3-22.6-11.4-36.1-11.4s-26.3,4-36.1,11.4c-15.9,11.9-16.9,26.6-16.5,33c0.1,1.2-1.3,1.9-2.3,1.2
			c-5.7-4.6-18.8-16.9-18.8-35c0-13.5,7.3-26.3,20.5-36.2c14.1-10.6,33-16.4,53.2-16.4s39.1,5.8,53.2,16.4
			c13.2,9.9,20.4,22.8,20.4,36.2c0,18.1-13.1,30.5-18.9,35c-0.9,0.8-2.3,0-2.3-1.2C189.7,227.4,188.7,212.7,172.9,200.8L172.9,200.8
			z"/>
		<path class="st0" d="M526.4,159.6c0,30.1-14.3,48.1-38.3,48.1c-22,0-34.1-14.8-34.1-41.8V91.2h-23.5v76.1
			c0,54.1,33.8,62.1,54,62.1c16.4,0,29.8-5.2,39.9-15.5c1-1,2.7-0.5,2.9,0.9c0.9,5,2.2,13.3,2.2,13.3h20.5V91.2h-23.5L526.4,159.6
			L526.4,159.6z"/>
		<path class="st0" d="M724,89.8c-19.6,0-35,7.5-44.9,21.8c-0.8,1.2-2.5,1.1-3.2-0.1c-8.1-13.8-22.9-21.7-41-21.7
			c-14.9,0-26.8,5.2-36.3,15.8c-1,1.1-2.8,0.6-3-0.8l-2.1-13.5H573V228h23.5v-72.1c0-27,13.6-44.4,34.7-44.4s31.5,13.9,31.5,39.1
			V228h23.5v-73.1c0-26.7,13.5-43.3,35.2-43.3c20,0,31,13.9,31,39.1V228h23.5v-78.7c0-20.2-5.1-35.6-15.2-45.9
			C751.8,94.5,739.2,89.8,724,89.8L724,89.8z"/>
		<path class="st0" d="M912.5,89.8c-20.9,0-33.8,8.1-41.3,15.8c-1,1-2.7,0.5-2.9-0.9l-2.1-13.6h-20.5V228h23.5v-68.4
			c0-30.1,14.8-48.1,39.7-48.1c23.2,0,35.4,14.4,35.4,41.8V228h23.5v-76C967.8,97.9,933.1,89.8,912.5,89.8L912.5,89.8z"/>
		<path class="st0" d="M1159.3,105.9l-2.1-14.7h-20.5V228h23.5v-69.7c0-37.2,21.9-44.1,34.9-44.1h11.8v-23h-7
			c-21.2,0-31.6,8.1-37.6,15.5C1161.4,107.9,1159.5,107.4,1159.3,105.9L1159.3,105.9z"/>
		<path class="st0" d="M1323,91.2l-37.9,101.6c-0.6,1.5-2.6,1.5-3.2,0l-38.9-101l-0.2-0.6h-25l52.2,134.7c0.5,1.3,0.4,2.4,0.1,3.2
			l-3.3,7.7c-5,12.7-7,15.2-18.6,15.2H1228v21.7h26.8c19.4,0,24.8-8.9,33.3-30.7l59.4-150.4l0.5-1.3H1323L1323,91.2z"/>
		<path class="st0" d="M388.5,196.1V45.6h-23.7v150.8c0,20.1,10.7,31.6,29.4,31.6h16.2v-21.5h-12.3
			C390.2,206.5,388.5,200.9,388.5,196.1L388.5,196.1z"/>
		<path class="st0" d="M1102.8,196.2v-56.7c0-31.4-20.1-49.5-55-49.5c-33,0-54.7,16-57.9,42.8l-0.1,1.1h23.5l0.2-0.8
			c2.6-13.5,15.4-21.9,33.3-21.9c20.4,0,32.5,10.1,32.5,27v6.9c0,0.8-0.6,1.4-1.4,1.4h-37.2c-35.5,0-55,15.2-55,42.9
			c0,24.4,19.8,40.2,50.5,40.2c0.4,0,0.9,0,1.3,0h0.3c17.1,0,31.4-5.2,42.6-15.5c0.9-0.8,2.4-0.6,3,0.5c4.7,8.8,13.3,13.4,25.1,13.4
			h9.7v-21.4h-5.8C1104.4,206.5,1102.8,200.9,1102.8,196.2L1102.8,196.2z M1077.8,166.6c0.8,0,1.4,0.6,1.4,1.4v4.2
			c0,22.8-15.9,37-41.5,37c-17.2,0-28.3-8.3-28.3-21.2c0-14.2,9.8-21.5,29.1-21.5L1077.8,166.6L1077.8,166.6z"/>
		<g>
			<polygon class="st0" points="799,228 822.4,228 822.4,228 822.5,228 822.5,91.2 799,91.2 			"/>
			<path class="st0" d="M811,45.6c-8.5,0-14.9,6.4-14.9,14.9s6.4,14.9,14.9,14.9s14.9-6.4,14.9-14.9S819.5,45.6,811,45.6z"/>
		</g>
	</g>
</g>
</svg>
