<?xml version="1.0" encoding="UTF-8" standalone="no"?>
<!-- Generator: Adobe Illustrator 22.0.1, SVG Export Plug-In . SVG Version: 6.00 Build 0)  -->

<svg
   version="1.1"
   id="Layer_1"
   x="0px"
   y="0px"
   viewBox="0 0 99.5 199.5425"
   xml:space="preserve"
   sodipodi:docname="kbfi.svg"
   width="99.5"
   height="199.5425"
   inkscape:version="1.2.2 (b0a8486541, 2022-12-01)"
   xmlns:inkscape="http://www.inkscape.org/namespaces/inkscape"
   xmlns:sodipodi="http://sodipodi.sourceforge.net/DTD/sodipodi-0.dtd"
   xmlns="http://www.w3.org/2000/svg"
   xmlns:svg="http://www.w3.org/2000/svg"><defs
   id="defs177" /><sodipodi:namedview
   id="namedview175"
   pagecolor="#ffffff"
   bordercolor="#000000"
   borderopacity="0.25"
   inkscape:showpageshadow="2"
   inkscape:pageopacity="0.0"
   inkscape:pagecheckerboard="0"
   inkscape:deskcolor="#d1d1d1"
   showgrid="false"
   inkscape:zoom="2.694064"
   inkscape:cx="-57.533897"
   inkscape:cy="98.549998"
   inkscape:window-width="1920"
   inkscape:window-height="1180"
   inkscape:window-x="0"
   inkscape:window-y="0"
   inkscape:window-maximized="1"
   inkscape:current-layer="Layer_1" />
<style
   type="text/css"
   id="style170">
	.st0{fill-rule:evenodd;clip-rule:evenodd;fill:#A12B2F;}
</style>
<path
   class="st0"
   d="m 23,90.4 h 36.7 18.4 c 2.5,0 4.6,-2.1 4.6,-4.6 0,-1.2 -0.5,-2.4 -1.3,-3.2 L 69,70.1 V 53.8 l 20.9,20.9 c 2.8,3 4.4,7.1 4.4,11.2 v 0.7 c -0.5,8.5 -7.5,15.1 -16,15.1 h -0.1 -44 z M 76.6,85.2 H 39.9 21.5 c -2.5,0 -4.6,2.1 -4.6,4.6 0,1.2 0.5,2.4 1.3,3.2 l 12.4,12.4 v 16.3 L 9.9,101.1 C 6.9,98.1 5.3,93.9 5.3,89.7 V 89 c 0.5,-8.5 7.5,-15.1 16,-15.1 h 0.1 44 z m -12.9,21.7 v 57.2 c 0,3.1 -2.5,5.6 -5.6,5.6 -3.1,0 -5.7,-2.5 -5.7,-5.6 v -57.2 z m 25.7,-56.1 0.3,0.3 c 2.8,2.8 4.4,6.6 4.5,10.5 v 9.9 L 64.6,42 v 0 L 63.7,41.1 V 68.6 H 52.4 V 13.8 Z M 35.8,68.6 V 11 c 0,-3.1 2.5,-5.6 5.6,-5.6 3.1,0 5.6,2.5 5.6,5.6 V 68.6 Z M 10.1,124.7 9.8,124.4 C 7,121.6 5.4,117.8 5.3,113.9 V 104 l 29.6,29.6 v 0 l 0.9,0.9 V 107 h 11.3 v 54.8 z m -4.4,3.1 0.9,0.9 c 14.4,14.4 28.9,28.9 43.5,43.1 v 0 c 2.1,2.1 4.9,3.3 7.9,3.3 6,0 11,-4.9 11,-10.9 l -0.1,-57.3 h 8.6 0.8 c 11.6,0 21,-9.3 21.2,-20.9 V 85.7 62.5 62.2 C 99.5,56.9 97.5,51.9 94,48 l -0.2,-0.2 v 0 L 65.6,19.6 49.4,3.3 C 47.4,1.2 44.5,0 41.5,0 35.4,0 30.5,4.9 30.5,11 V 68.7 H 21.2 C 9.6,68.7 0.2,78 0,89.5 v 0.3 23.2 0.3 c 0,5.3 2,10.4 5.6,14.3 z"
   id="path172"
   style="fill:#b6b6b6;fill-opacity:1" />
<text
   xml:space="preserve"
   style="font-weight:bold;font-size:26px;font-family:sans-serif;-inkscape-font-specification:'sans-serif, Bold';fill:#b6b6b6;fill-opacity:1;stroke:none;stroke-width:7.93701;stroke-linecap:square;paint-order:markers stroke fill"
   x="19.433996"
   y="199.5425"
   id="text4706"><tspan
     sodipodi:role="line"
     id="tspan4704"
     x="19.433996"
     y="199.5425">KBFI</tspan></text></svg>
